#N canvas 607 247 450 300 10;
#X obj 102 56 pdfirmata;
#N canvas 793 50 798 808 Usage 0;
#X msg 15 69 pinMode pin(0-127) mode(INPUT \, OUTPUT \, ANALOG \, PWM
\, SERVO \, SHIFT \, I2C \, ONEWIRE \, STEPPER \, ENCODER \, SERIAL
\, PULLUP);
#X msg 15 127 analogWrite pin(0-127) value(1-28bit);
#X text 15 45 pinMode;
#X text 15 21 Basic I/O;
#X text 18 107 analogWrite;
#X text 17 160 digitalWrite;
#X msg 17 188 digitalWrite pin(0-127) state(0-1);
#X text 16 209 analogRead;
#X msg 13 233 analogRead pin(0-15) readMode(1-0);
#X text 282 205 analogRead Reply;
#X msg 284 231 pin(A0-A15) Value(0-14bit) Reply;
#X text 540 205 example;
#X obj 540 230 pdfirmata;
#X obj 80 498 pdfirmata;
#X text 27 470 Commands;
#X text 28 527 to comport;
#X text 142 467 from comport;
#X floatatom 539 338 5 0 0 0 - - -, f 5;
#X text 142 525 Incoming Messages;
#X obj 539 307 route 0;
#X obj 539 256 route list;
#X obj 539 282 route Analog;
#X text 22 369 pinRead;
#X msg 21 395 pinRead pin(0-127);
#X text 187 371 pinRead Reply;
#X msg 187 395 pin(0-127) pinMode(INPUT-OUTPUT...) Value(0-14bit);
#X text 561 373 Example;
#X obj 562 397 pdfirmata;
#X obj 561 423 route list;
#X obj 561 445 print;
#X connect 12 1 20 0;
#X connect 19 0 17 0;
#X connect 20 0 21 0;
#X connect 21 0 19 0;
#X connect 27 1 28 0;
#X connect 28 0 29 0;
#X restore 20 188 pd Usage;
#X text 220 120 incoming messages from arduino;
#X obj 102 96 comport 1 57600;
#X obj 102 33 list;
#X text 5 9 Commands inlet;
#X obj 223 100 route list;
#X connect 0 0 3 0;
#X connect 0 1 6 0;
#X connect 3 0 0 1;
#X connect 4 0 0 0;
