#N canvas 607 247 450 300 10;
#X obj 105 100 pdfirmata;
#N canvas 793 50 798 808 Usage 0;
#X msg 15 69 pinMode pin(0-127) mode(INPUT \, OUTPUT \, ANALOG \, PWM
\, SERVO \, SHIFT \, I2C \, ONEWIRE \, STEPPER \, ENCODER \, SERIAL
\, PULLUP);
#X msg 15 127 analogWrite pin(0-127) value(1-28bit);
#X text 15 45 pinMode;
#X text 15 21 Basic I/O;
#X text 18 107 analogWrite;
#X text 17 160 digitalWrite;
#X msg 17 188 digitalWrite pin(0-127) state(0-1);
#X text 16 209 analogRead;
#X msg 13 233 analogRead pin(0-15) readMode(1-0);
#X text 282 205 analogRead Reply;
#X text 581 207 example;
#X obj 581 232 pdfirmata;
#X obj 80 498 pdfirmata;
#X text 27 470 Commands;
#X text 28 527 to comport;
#X text 142 467 from comport;
#X floatatom 580 340 5 0 0 0 - - -, f 5;
#X text 142 525 Incoming Messages;
#X obj 580 309 route 0;
#X obj 580 258 route list;
#X obj 580 284 route Analog;
#X text 22 369 pinRead;
#X msg 21 395 pinRead pin(0-127);
#X text 162 371 pinRead Reply;
#X text 561 373 Example;
#X obj 562 397 pdfirmata;
#X obj 561 423 route list;
#X obj 561 445 print;
#X msg 284 231 Analog pin(A0-A15) Value(0-14bit) Reply;
#X msg 162 395 Pin pin(0-127) pinMode(INPUT-OUTPUT...) Value(0-14bit)
;
#X connect 11 1 19 0;
#X connect 18 0 16 0;
#X connect 19 0 20 0;
#X connect 20 0 18 0;
#X connect 25 1 26 0;
#X connect 26 0 27 0;
#X restore 20 188 pd Usage;
#X text 105 248 incoming messages from arduino;
#X obj 105 77 list;
#X text 5 9 Commands inlet;
#X obj 226 144 route list;
#X msg 250 43 digitalWrite 13 \$1;
#X obj 250 9 tgl 15 0 empty empty empty 17 7 0 10 -262144 -1 -1 0 1
;
#X obj 30 114 print;
#X obj 105 140 comport 10 57600;
#X obj 226 170 route Analog;
#X obj 226 200 route 0;
#X floatatom 226 230 5 0 0 0 - - -, f 5;
#X msg 269 83 analogRead 0 0;
#X msg 105 40 pinRead 13;
#X obj 337 159 print;
#X connect 0 0 8 0;
#X connect 0 0 9 0;
#X connect 0 1 5 0;
#X connect 3 0 0 0;
#X connect 5 0 10 0;
#X connect 5 0 15 0;
#X connect 6 0 3 0;
#X connect 7 0 6 0;
#X connect 9 0 0 1;
#X connect 10 0 11 0;
#X connect 11 0 12 0;
#X connect 13 0 3 0;
#X connect 14 0 3 0;
