#N canvas 476 226 450 300 10;
#X obj 105 116 pdfirmata;
#N canvas 591 50 798 687 Usage 0;
#X msg 15 69 pinMode pin(0-127) mode(INPUT \, OUTPUT \, ANALOG \, PWM
\, SERVO \, SHIFT \, I2C \, ONEWIRE \, STEPPER \, ENCODER \, SERIAL
\, PULLUP);
#X msg 15 127 analogWrite pin(0-127) value(1-28bit);
#X text 15 45 pinMode;
#X text 15 21 Basic I/O;
#X text 18 107 analogWrite;
#X text 17 160 digitalWrite;
#X msg 17 188 digitalWrite pin(0-127) state(0-1);
#X text 16 209 analogRead;
#X msg 13 233 analogRead pin(0-15) readMode(1-0);
#X text 282 205 analogRead Reply;
#X text 581 207 example;
#X obj 581 232 pdfirmata;
#X obj 80 615 pdfirmata;
#X text 27 587 Commands;
#X text 28 644 to comport;
#X text 142 584 from comport;
#X floatatom 580 340 5 0 0 0 - - -, f 5;
#X text 142 642 Incoming Messages;
#X obj 580 309 route 0;
#X obj 580 258 route list;
#X obj 580 284 route Analog;
#X text 22 369 pinRead;
#X msg 21 395 pinRead pin(0-127);
#X text 162 371 pinRead Reply;
#X text 561 373 Example;
#X obj 562 397 pdfirmata;
#X obj 561 423 route list;
#X obj 561 445 print;
#X msg 284 231 Analog pin(A0-A15) Value(0-14bit) Reply;
#X msg 162 395 Pin pin(0-127) pinMode(INPUT-OUTPUT...) Value(0-14bit)
;
#N canvas 787 99 699 574 SerialUsage 0;
#X text 17 17 Serial Usage;
#X text 17 43 Serial config;
#X msg 19 73 Serial config port(HW0-3_SW0-3) baud rx tx;
#X text 17 104 Serial print;
#X text 17 160 Serial println;
#X msg 19 190 Serial println port(HW0-3_SW0-3) message(symbol);
#X msg 19 134 Serial print port(HW0-3_SW0-3) message(symbol);
#X text 17 216 Serial read;
#X msg 19 246 Serial read port(HW0-3_SW0-3) state(1-0);
#X restore 23 501 pd SerialUsage;
#X connect 11 1 19 0;
#X connect 18 0 16 0;
#X connect 19 0 20 0;
#X connect 20 0 18 0;
#X connect 25 1 26 0;
#X connect 26 0 27 0;
#X restore 20 204 pd Usage;
#X text 105 248 incoming messages from arduino;
#X obj 105 93 list;
#X text 5 9 Commands inlet;
#X obj 226 160 route list;
#X obj 105 46 inlet;
#X obj 226 196 outlet;
#X obj 105 156 comport 1 57600;
#X obj 105 68 route open close devices;
#X msg 260 96 close;
#X msg 316 97 devices;
#X msg 187 97 open \$1;
#X connect 0 0 8 0;
#X connect 0 1 5 0;
#X connect 3 0 0 0;
#X connect 5 0 7 0;
#X connect 6 0 9 0;
#X connect 8 0 0 1;
#X connect 9 0 12 0;
#X connect 9 1 10 0;
#X connect 9 2 11 0;
#X connect 9 3 3 0;
#X connect 10 0 8 0;
#X connect 11 0 8 0;
#X connect 12 0 8 0;
